<mxfile host="app.diagrams.net" modified="2022-03-12T11:29:48.726Z" agent="5.0 (Macintosh; Intel Mac OS X 10_15_7) AppleWebKit/537.36 (KHTML, like Gecko) Chrome/99.0.4844.51 Safari/537.36" etag="yLmmZpFQkDqG7aoeMyfu" version="17.1.2" type="github">
  <diagram id="crswPrE13vBtjeNu79Lq" name="Page-1">
    <mxGraphModel dx="1226" dy="1153" grid="1" gridSize="10" guides="1" tooltips="1" connect="1" arrows="1" fold="1" page="1" pageScale="1" pageWidth="827" pageHeight="1169" math="0" shadow="0">
      <root>
        <mxCell id="0" />
        <mxCell id="1" parent="0" />
        <mxCell id="r55ew_a5nl4dUiA73zyB-2" value="&lt;p style=&quot;margin: 0px ; margin-top: 4px ; text-align: center&quot;&gt;&lt;i&gt;&amp;lt;&amp;lt;Interface&amp;gt;&amp;gt;&lt;/i&gt;&lt;br&gt;&lt;b&gt;Component&lt;/b&gt;&lt;/p&gt;&lt;p style=&quot;margin: 0px ; margin-left: 4px&quot;&gt;&lt;br&gt;&lt;/p&gt;&lt;hr size=&quot;1&quot;&gt;&lt;p style=&quot;margin: 0px ; margin-left: 4px&quot;&gt;+ render(): void&lt;br&gt;&lt;/p&gt;" style="verticalAlign=top;align=left;overflow=fill;fontSize=12;fontFamily=Helvetica;html=1;" vertex="1" parent="1">
          <mxGeometry x="340" y="160" width="190" height="100" as="geometry" />
        </mxCell>
        <mxCell id="r55ew_a5nl4dUiA73zyB-5" style="edgeStyle=orthogonalEdgeStyle;rounded=0;orthogonalLoop=1;jettySize=auto;html=1;exitX=0.25;exitY=0;exitDx=0;exitDy=0;entryX=0.5;entryY=1;entryDx=0;entryDy=0;" edge="1" parent="1" source="r55ew_a5nl4dUiA73zyB-3" target="r55ew_a5nl4dUiA73zyB-2">
          <mxGeometry relative="1" as="geometry" />
        </mxCell>
        <mxCell id="r55ew_a5nl4dUiA73zyB-3" value="Shape" style="swimlane;fontStyle=1;align=center;verticalAlign=middle;childLayout=stackLayout;horizontal=1;startSize=29;horizontalStack=0;resizeParent=1;resizeParentMax=0;resizeLast=0;collapsible=0;marginBottom=0;html=1;" vertex="1" parent="1">
          <mxGeometry x="140" y="320" width="140" height="54" as="geometry" />
        </mxCell>
        <mxCell id="r55ew_a5nl4dUiA73zyB-4" value="+ render(): void" style="text;html=1;strokeColor=none;fillColor=none;align=left;verticalAlign=middle;spacingLeft=4;spacingRight=4;overflow=hidden;rotatable=0;points=[[0,0.5],[1,0.5]];portConstraint=eastwest;" vertex="1" parent="r55ew_a5nl4dUiA73zyB-3">
          <mxGeometry y="29" width="140" height="25" as="geometry" />
        </mxCell>
        <mxCell id="r55ew_a5nl4dUiA73zyB-10" style="edgeStyle=orthogonalEdgeStyle;rounded=0;orthogonalLoop=1;jettySize=auto;html=1;exitX=0.25;exitY=0;exitDx=0;exitDy=0;entryX=0.5;entryY=1;entryDx=0;entryDy=0;" edge="1" parent="1" source="r55ew_a5nl4dUiA73zyB-6" target="r55ew_a5nl4dUiA73zyB-2">
          <mxGeometry relative="1" as="geometry" />
        </mxCell>
        <mxCell id="r55ew_a5nl4dUiA73zyB-6" value="Group" style="swimlane;fontStyle=0;align=center;verticalAlign=top;childLayout=stackLayout;horizontal=1;startSize=30;horizontalStack=0;resizeParent=1;resizeParentMax=0;resizeLast=0;collapsible=0;marginBottom=0;html=1;" vertex="1" parent="1">
          <mxGeometry x="630" y="320" width="190" height="78" as="geometry" />
        </mxCell>
        <mxCell id="r55ew_a5nl4dUiA73zyB-7" value="+ components List&amp;lt;Componet&amp;gt;" style="text;html=1;strokeColor=none;fillColor=none;align=left;verticalAlign=middle;spacingLeft=4;spacingRight=4;overflow=hidden;rotatable=0;points=[[0,0.5],[1,0.5]];portConstraint=eastwest;" vertex="1" parent="r55ew_a5nl4dUiA73zyB-6">
          <mxGeometry y="30" width="190" height="20" as="geometry" />
        </mxCell>
        <mxCell id="r55ew_a5nl4dUiA73zyB-8" value="" style="line;strokeWidth=1;fillColor=none;align=left;verticalAlign=middle;spacingTop=-1;spacingLeft=3;spacingRight=3;rotatable=0;labelPosition=right;points=[];portConstraint=eastwest;" vertex="1" parent="r55ew_a5nl4dUiA73zyB-6">
          <mxGeometry y="50" width="190" height="8" as="geometry" />
        </mxCell>
        <mxCell id="r55ew_a5nl4dUiA73zyB-9" value="+ render(): void" style="text;html=1;strokeColor=none;fillColor=none;align=left;verticalAlign=middle;spacingLeft=4;spacingRight=4;overflow=hidden;rotatable=0;points=[[0,0.5],[1,0.5]];portConstraint=eastwest;" vertex="1" parent="r55ew_a5nl4dUiA73zyB-6">
          <mxGeometry y="58" width="190" height="20" as="geometry" />
        </mxCell>
      </root>
    </mxGraphModel>
  </diagram>
</mxfile>
